(((((((((hardcoded Dutch subs)))))))

Verenigde Staten
Komedie / Romantiek
107 minuten

geregisseerd door Greg Mottola
met Jesse Eisenberg, Kristen Stewart en Ryan Reynolds

Adventureland gaat over de net afgestudeerde tiener James Brennan (Jesse Eisenberg) in de zomer van 1987. Omdat zijn vader dankzij z'n baan met een financiële terugslag te maken krijgt, moet James zelf werken voor zijn schoolgeld. Omdat James erg weinig ervaring heeft, wordt hij bij verschillende bedrijven niet aangenomen en lijkt het erop dat hij geen andere keus heeft om een nietszeggend baantje te nemen bij het pretpark Adventureland. Hij wordt hier al snel verliefd op Emily Lewin (Kristen Stewart), wat een serie gebeurtenissen in gang zet die James belangrijke dingen over het leven, de liefde en vertouwen leert...
 
http://www.moviemeter.nl/film/54080
------------------------

Format : AVI
Format/Info : Audio Video Interleave
File size : 606 MiB
Duration : 1h 40mn
Overall bit rate : 839 Kbps
Writing application : Nandub v1.0rc2
Writing library : VirtualDub build 30586/release

Video
ID : 0
Format : MPEG-4 Visual
Format profile : Advanced Simple@L5
Format settings, BVOP : Yes
Format settings, QPel : No
Format settings, GMC : No warppoints
Format settings, Matrix : Default (H.263)
Muxing mode : Packed bitstream
Codec ID : XVID
Codec ID/Hint : XviD
Duration : 1h 40mn
Bit rate : 718 Kbps
Width : 640 pixels
Height : 352 pixels
Display aspect ratio : 16/9
Frame rate : 23.976 fps
Resolution : 24 bits
Colorimetry : 4:2:0
Scan type : Progressive
Bits/(Pixel*Frame) : 0.133
Stream size : 518 MiB (86%)
Writing library : XviD 1.2.1 (UTC 2008-12-04)

Audio
ID : 1
Format : MPEG Audio
Format version : Version 1
Format profile : Layer 3
Codec ID : 55
Codec ID/Hint : MP3
Duration : 1h 40mn
Bit rate mode : Constant
Bit rate : 112 Kbps
Channel(s) : 2 channels
Sampling rate : 48.0 KHz
Resolution : 16 bits
Stream size : 80.8 MiB (13%)
Alignment : Split accross interleaves
Interleave, duration : 42 ms (1.00 video frame)
Interleave, preload duration : 500 ms
